# xmcd
#
# Track frame offsets: 
#        182
#        11982
#        23862
#        35205
#        46590
#        60550
#        71937
#        85245
#        98097
#        114117
#        129752
#        144670
#        155932
#        168532
#        178667
#        192680
#        204847
#        218455
#
# Disc length: 3093 seconds
#
# Revision: 6
# Processed by: cddbd v1.5.2PL0 Copyright (c) Steve Scherf et al.
# Submitted via: ExactAudioCopy v0.99pb5
#
DISCID=fe0c1312
DTITLE=Various Artist - Six Days On The Road - 18 Original Country-Songs
DYEAR=1998
DGENRE=Country
TTITLE0=Dave Dudley - Six days on the road
TTITLE1=Ferlin Husky - Money greases the wheels
TTITLE2=Barbara Perry - I'll hold you closer than love
TTITLE3=Buddy Meredith - A new girl in town
TTITLE4=Dave Dudley - Morning sun
TTITLE5=Bobby Bare - That's how I got to Memphis
TTITLE6=Linda Manning - If only for a moment
TTITLE7=Ronnie Rogers - Dan D. Derby
TTITLE8=Rick Pilgreen - If I had the chance
TTITLE9=Karen O'Donnell - I know what it's all about now, Mama
TTITLE10=Dave Dudley - Deutschland Autobahn
TTITLE11=Freddy Quinn - Older men make better lovers
TTITLE12=George Kent - Hardscuffle road
TTITLE13=Bud Logan - I was on my way
TTITLE14=Tom Overland - I love your lovely smile
TTITLE15=David Price - I need a friend
TTITLE16=Rick Johnson - I've heard those very lines before
TTITLE17=Billy Grammer - The hour of separation
EXTD=18 Original Country-Songs
EXTT0=
EXTT1=
EXTT2=
EXTT3=
EXTT4=
EXTT5=
EXTT6=
EXTT7=
EXTT8=
EXTT9=
EXTT10=
EXTT11=
EXTT12=
EXTT13=
EXTT14=
EXTT15=
EXTT16=
EXTT17=
PLAYORDER=
